# xmcd
#
# Track frame offsets:
#	150
#	9892
#	22190
#	33587
#	42245
#	51020
#	65200
#	78722
#	95947
#	110345
#	118902
#	132052
#	144677
#	152217
#	164695
#	179812
#	191392
#
# Disc length: 2857 seconds
#
# Revision: 9
# Processed by: cddbd v1.5.2PL0 Copyright (c) Steve Scherf et al.
# Submitted via: EZCDAudioConverter 1.3.4.1
#
DISCID=fd0b2711
DTITLE=The Byrds - Younger Than Yesterday
DYEAR=1966
DGENRE=
TTITLE0=So You Want To Be A Rock N' Roll Star
TTITLE1=Have You Seen Her Face
TTITLE2=C.T.A. - 102
TTITLE3=Renaissance Fair
TTITLE4=Time Between
TTITLE5=Everybody's Been Burned
TTITLE6=Thoughts And Words
TTITLE7=Mind Gardens
TTITLE8=My Back Pages
TTITLE9=The Girl With No Name
TTITLE10=Why
TTITLE11=It Happens Each Day
TTITLE12=Don't Make Waves
TTITLE13=My Back Pages [Alternate Version]
TTITLE14=Mind Gardens [Alternate Version]
TTITLE15=Lady Friend
TTITLE16=Old John Robertson [Single]
EXTD=
EXTT0=
EXTT1=
EXTT2=
EXTT3=
EXTT4=
EXTT5=
EXTT6=
EXTT7=
EXTT8=
EXTT9=
EXTT10=
EXTT11=
EXTT12=
EXTT13=
EXTT14=
EXTT15=
EXTT16=
PLAYORDER=
